<svg width="1200" height="680" viewBox="0 0 1200 680" fill="none" xmlns="http://www.w3.org/2000/svg">
  <defs>
    <linearGradient id="bg" x1="58" y1="44" x2="1130" y2="628" gradientUnits="userSpaceOnUse">
      <stop stop-color="#091827"/>
      <stop offset="1" stop-color="#153D63"/>
    </linearGradient>
    <linearGradient id="screen" x1="118" y1="178" x2="530" y2="454" gradientUnits="userSpaceOnUse">
      <stop stop-color="#101B2A"/>
      <stop offset="1" stop-color="#0A1420"/>
    </linearGradient>
    <linearGradient id="screen2" x1="670" y1="178" x2="1082" y2="454" gradientUnits="userSpaceOnUse">
      <stop stop-color="#101B2A"/>
      <stop offset="1" stop-color="#0A1420"/>
    </linearGradient>
  </defs>

  <rect width="1200" height="680" rx="32" fill="#06101C"/>
  <rect x="22" y="22" width="1156" height="636" rx="28" fill="url(#bg)"/>

  <text x="78" y="86" fill="#7EE787" font-family="'SFMono-Regular', Consolas, monospace" font-size="22">$ leave the office, keep the same workflow</text>
  <text x="78" y="138" fill="white" font-family="'Segoe UI', Arial, sans-serif" font-size="54" font-weight="700">Reconnect to the office machine</text>
  <text x="78" y="186" fill="#DCE7F3" font-family="'Segoe UI', Arial, sans-serif" font-size="30">and continue the same Claude Code session from somewhere else.</text>

  <rect x="78" y="232" width="438" height="290" rx="24" fill="url(#screen)" stroke="rgba(255,255,255,0.12)"/>
  <rect x="684" y="232" width="438" height="290" rx="24" fill="url(#screen2)" stroke="rgba(255,255,255,0.12)"/>

  <circle cx="112" cy="264" r="7" fill="#F85149"/>
  <circle cx="136" cy="264" r="7" fill="#F2CC60"/>
  <circle cx="160" cy="264" r="7" fill="#2EA043"/>
  <circle cx="718" cy="264" r="7" fill="#F85149"/>
  <circle cx="742" cy="264" r="7" fill="#F2CC60"/>
  <circle cx="766" cy="264" r="7" fill="#2EA043"/>

  <text x="110" y="307" fill="#8B949E" font-family="'SFMono-Regular', Consolas, monospace" font-size="18">HOME LAPTOP</text>
  <text x="716" y="307" fill="#8B949E" font-family="'SFMono-Regular', Consolas, monospace" font-size="18">OFFICE MACHINE</text>

  <text x="110" y="352" fill="#F0F6FC" font-family="'Segoe UI', Arial, sans-serif" font-size="26" font-weight="700">Claude Code</text>
  <text x="716" y="352" fill="#F0F6FC" font-family="'Segoe UI', Arial, sans-serif" font-size="26" font-weight="700">Claude Code</text>

  <text x="110" y="390" fill="#7EE787" font-family="'SFMono-Regular', Consolas, monospace" font-size="19">$ claude</text>
  <text x="716" y="390" fill="#7EE787" font-family="'SFMono-Regular', Consolas, monospace" font-size="19">$ claude</text>

  <text x="110" y="426" fill="#DCE7F3" font-family="'SFMono-Regular', Consolas, monospace" font-size="18">Continue fixing the production issue</text>
  <text x="716" y="426" fill="#DCE7F3" font-family="'SFMono-Regular', Consolas, monospace" font-size="18">Repository, logs, GPU, and context are ready</text>

  <rect x="520" y="326" width="158" height="94" rx="20" fill="#2EA043"/>
  <text x="541" y="362" fill="white" font-family="'SFMono-Regular', Consolas, monospace" font-size="18" font-weight="700">$ bto</text>
  <text x="541" y="392" fill="white" font-family="'SFMono-Regular', Consolas, monospace" font-size="22" font-weight="700">office-213</text>

  <path d="M496 374C468 374 454 374 444 374" stroke="#58A6FF" stroke-width="6" stroke-linecap="round"/>
  <path d="M754 374C734 374 714 374 700 374" stroke="#58A6FF" stroke-width="6" stroke-linecap="round"/>

  <rect x="78" y="558" width="1044" height="62" rx="22" fill="rgba(9,18,31,0.75)" stroke="rgba(255,255,255,0.10)"/>
  <text x="106" y="598" fill="#C9D1D9" font-family="'Segoe UI', Arial, sans-serif" font-size="24">BTO is not about generic remote access. It is about getting back to your office computer and continuing the exact work session you had before you left.</text>
</svg>
